<svg width="106" height="49" viewBox="0 0 106 49" fill="none" xmlns="http://www.w3.org/2000/svg">
<path d="M0 10C0 4.47715 4.47715 0 10 0H71C90.33 0 106 15.67 106 35V35C106 42.732 99.732 49 92 49H10C4.47715 49 0 44.5228 0 39V10Z" fill="url(#paint0_linear_15_4)"/>
<g filter="url(#filter0_d_15_4)">
<path d="M24.5432 18.364V31H21.4652V23.422L18.6392 31H16.1552L13.3112 23.404V31H10.2332V18.364H13.8692L17.4152 27.112L20.9252 18.364H24.5432ZM28.3046 19.912C27.7646 19.912 27.3206 19.756 26.9726 19.444C26.6366 19.12 26.4686 18.724 26.4686 18.256C26.4686 17.776 26.6366 17.38 26.9726 17.068C27.3206 16.744 27.7646 16.582 28.3046 16.582C28.8326 16.582 29.2646 16.744 29.6006 17.068C29.9486 17.38 30.1226 17.776 30.1226 18.256C30.1226 18.724 29.9486 19.12 29.6006 19.444C29.2646 19.756 28.8326 19.912 28.3046 19.912ZM29.8346 20.956V31H26.7566V20.956H29.8346ZM31.4532 25.96C31.4532 24.928 31.6452 24.022 32.0292 23.242C32.4252 22.462 32.9592 21.862 33.6312 21.442C34.3032 21.022 35.0532 20.812 35.8812 20.812C36.5412 20.812 37.1412 20.95 37.6812 21.226C38.2332 21.502 38.6652 21.874 38.9772 22.342V17.68H42.0552V31H38.9772V29.56C38.6892 30.04 38.2752 30.424 37.7352 30.712C37.2072 31 36.5892 31.144 35.8812 31.144C35.0532 31.144 34.3032 30.934 33.6312 30.514C32.9592 30.082 32.4252 29.476 32.0292 28.696C31.6452 27.904 31.4532 26.992 31.4532 25.96ZM38.9772 25.978C38.9772 25.21 38.7612 24.604 38.3292 24.16C37.9092 23.716 37.3932 23.494 36.7812 23.494C36.1692 23.494 35.6472 23.716 35.2152 24.16C34.7952 24.592 34.5852 25.192 34.5852 25.96C34.5852 26.728 34.7952 27.34 35.2152 27.796C35.6472 28.24 36.1692 28.462 36.7812 28.462C37.3932 28.462 37.9092 28.24 38.3292 27.796C38.7612 27.352 38.9772 26.746 38.9772 25.978ZM53.372 18.364V20.83H50.024V31H46.946V20.83H43.598V18.364H53.372ZM57.9948 22.63C58.3548 22.078 58.8048 21.646 59.3448 21.334C59.8848 21.01 60.4848 20.848 61.1448 20.848V24.106H60.2988C59.5308 24.106 58.9548 24.274 58.5708 24.61C58.1868 24.934 57.9948 25.51 57.9948 26.338V31H54.9168V20.956H57.9948V22.63ZM62.004 25.96C62.004 24.928 62.196 24.022 62.58 23.242C62.976 22.462 63.51 21.862 64.182 21.442C64.854 21.022 65.604 20.812 66.432 20.812C67.14 20.812 67.758 20.956 68.286 21.244C68.826 21.532 69.24 21.91 69.528 22.378V20.956H72.606V31H69.528V29.578C69.228 30.046 68.808 30.424 68.268 30.712C67.74 31 67.122 31.144 66.414 31.144C65.598 31.144 64.854 30.934 64.182 30.514C63.51 30.082 62.976 29.476 62.58 28.696C62.196 27.904 62.004 26.992 62.004 25.96ZM69.528 25.978C69.528 25.21 69.312 24.604 68.88 24.16C68.46 23.716 67.944 23.494 67.332 23.494C66.72 23.494 66.198 23.716 65.766 24.16C65.346 24.592 65.136 25.192 65.136 25.96C65.136 26.728 65.346 27.34 65.766 27.796C66.198 28.24 66.72 28.462 67.332 28.462C67.944 28.462 68.46 28.24 68.88 27.796C69.312 27.352 69.528 26.746 69.528 25.978ZM80.9528 20.848C82.1288 20.848 83.0648 21.232 83.7608 22C84.4688 22.756 84.8228 23.8 84.8228 25.132V31H81.7628V25.546C81.7628 24.874 81.5888 24.352 81.2408 23.98C80.8928 23.608 80.4248 23.422 79.8368 23.422C79.2488 23.422 78.7808 23.608 78.4328 23.98C78.0848 24.352 77.9108 24.874 77.9108 25.546V31H74.8328V20.956H77.9108V22.288C78.2228 21.844 78.6428 21.496 79.1708 21.244C79.6988 20.98 80.2928 20.848 80.9528 20.848ZM91.0477 31.144C90.1717 31.144 89.3917 30.994 88.7077 30.694C88.0237 30.394 87.4837 29.986 87.0877 29.47C86.6917 28.942 86.4697 28.354 86.4217 27.706H89.4637C89.4997 28.054 89.6617 28.336 89.9497 28.552C90.2377 28.768 90.5917 28.876 91.0117 28.876C91.3957 28.876 91.6897 28.804 91.8937 28.66C92.1097 28.504 92.2177 28.306 92.2177 28.066C92.2177 27.778 92.0677 27.568 91.7677 27.436C91.4677 27.292 90.9817 27.136 90.3097 26.968C89.5897 26.8 88.9897 26.626 88.5097 26.446C88.0297 26.254 87.6157 25.96 87.2677 25.564C86.9197 25.156 86.7457 24.61 86.7457 23.926C86.7457 23.35 86.9017 22.828 87.2137 22.36C87.5377 21.88 88.0057 21.502 88.6177 21.226C89.2417 20.95 89.9797 20.812 90.8317 20.812C92.0917 20.812 93.0817 21.124 93.8017 21.748C94.5337 22.372 94.9537 23.2 95.0617 24.232H92.2177C92.1697 23.884 92.0137 23.608 91.7497 23.404C91.4977 23.2 91.1617 23.098 90.7417 23.098C90.3817 23.098 90.1057 23.17 89.9137 23.314C89.7217 23.446 89.6257 23.632 89.6257 23.872C89.6257 24.16 89.7757 24.376 90.0757 24.52C90.3877 24.664 90.8677 24.808 91.5157 24.952C92.2597 25.144 92.8657 25.336 93.3337 25.528C93.8017 25.708 94.2097 26.008 94.5577 26.428C94.9177 26.836 95.1037 27.388 95.1157 28.084C95.1157 28.672 94.9477 29.2 94.6117 29.668C94.2877 30.124 93.8137 30.484 93.1897 30.748C92.5777 31.012 91.8637 31.144 91.0477 31.144Z" fill="white"/>
</g>
<defs>
<filter id="filter0_d_15_4" x="6.23315" y="16.582" width="92.8826" height="22.562" filterUnits="userSpaceOnUse" color-interpolation-filters="sRGB">
<feFlood flood-opacity="0" result="BackgroundImageFix"/>
<feColorMatrix in="SourceAlpha" type="matrix" values="0 0 0 0 0 0 0 0 0 0 0 0 0 0 0 0 0 0 127 0" result="hardAlpha"/>
<feOffset dy="4"/>
<feGaussianBlur stdDeviation="2"/>
<feComposite in2="hardAlpha" operator="out"/>
<feColorMatrix type="matrix" values="0 0 0 0 0 0 0 0 0 0 0 0 0 0 0 0 0 0 0.25 0"/>
<feBlend mode="normal" in2="BackgroundImageFix" result="effect1_dropShadow_15_4"/>
<feBlend mode="normal" in="SourceGraphic" in2="effect1_dropShadow_15_4" result="shape"/>
</filter>
<linearGradient id="paint0_linear_15_4" x1="106" y1="0" x2="-3.81357e-06" y2="49" gradientUnits="userSpaceOnUse">
<stop stop-color="white"/>
<stop offset="0.546875" stop-color="#0500FF"/>
<stop offset="1" stop-color="#0500FF"/>
</linearGradient>
</defs>
</svg>
